<?xml version="1.0" standalone="no"?>
<!DOCTYPE svg PUBLIC "-//W3C//DTD SVG 20010904//EN"
 "http://www.w3.org/TR/2001/REC-SVG-20010904/DTD/svg10.dtd">
<svg version="1.0" xmlns="http://www.w3.org/2000/svg"
 width="420.000000pt" height="420.000000pt" viewBox="0 0 420.000000 420.000000"
 preserveAspectRatio="xMidYMid meet">
<metadata>
Created by potrace 1.14, written by Peter Selinger 2001-2017
</metadata>
<g transform="translate(0.000000,420.000000) scale(0.100000,-0.100000)"
fill="#000000" stroke="none">
<path d="M2489 3415 c-3 -2 -34 -5 -69 -6 -92 -3 -195 -35 -262 -80 -50 -34
-88 -43 -88 -20 0 3 -16 15 -35 25 -19 11 -35 23 -35 28 0 4 -8 8 -17 8 -10 0
-38 8 -63 16 -60 22 -214 28 -303 14 -165 -28 -379 -170 -451 -300 -11 -19
-28 -44 -38 -54 -9 -10 -15 -23 -12 -28 3 -4 0 -8 -5 -8 -6 0 -10 -3 -9 -7 1
-5 -13 -38 -30 -75 -18 -37 -31 -71 -30 -75 0 -5 -5 -21 -12 -38 -19 -44 -37
-146 -31 -172 3 -11 24 -42 46 -68 39 -48 69 -95 58 -95 -3 0 -1 -6 5 -13 17
-21 28 -114 26 -222 -1 -55 -2 -138 -3 -183 l-1 -84 -31 26 c-38 32 -70 33
-103 3 -66 -61 -65 -176 3 -392 16 -49 32 -98 36 -107 6 -16 0 -18 -58 -18
-57 0 -67 -3 -92 -27 l-27 -28 6 -160 c3 -88 9 -198 12 -245 3 -47 7 -119 9
-160 9 -204 18 -377 20 -390 2 -17 -23 -61 -42 -73 -7 -4 -13 -15 -13 -22 0
-8 -4 -15 -10 -15 -5 0 -10 -7 -10 -15 0 -8 -3 -15 -7 -15 -9 0 -57 -82 -85
-143 -9 -20 -15 -37 -12 -37 3 0 0 -8 -5 -18 -10 -19 -18 -51 -26 -109 l-5
-33 1391 0 1391 0 -7 46 c-12 89 -97 272 -158 341 -25 28 -25 22 -2 453 2 30
6 127 10 215 4 88 9 168 10 177 4 17 7 132 6 181 -1 17 -12 38 -27 52 -22 21
-37 25 -85 25 -33 0 -59 1 -59 3 0 1 11 31 24 67 13 36 23 67 24 70 0 3 6 25
13 50 17 60 18 68 25 115 14 106 8 149 -31 200 -28 38 -71 44 -109 14 -15 -12
-29 -19 -32 -16 -7 6 -8 407 -2 427 22 70 53 127 88 160 25 23 42 51 45 75 2
21 -24 133 -49 202 -27 80 -105 233 -118 233 -4 0 -8 6 -8 14 0 30 -178 196
-210 196 -6 0 -10 5 -10 10 0 6 -11 15 -25 20 -14 5 -44 19 -67 30 -49 24 -65
29 -173 46 -22 3 -43 8 -46 10 -3 2 -8 2 -10 -1z"/>
</g>
</svg>
